<svg xmlns="http://www.w3.org/2000/svg" viewBox="0 0 128 128">
  <defs>
    <linearGradient id="g" x1="0" y1="0" x2="1" y2="1">
      <stop offset="0%" stop-color="#8a6a40"/>
      <stop offset="50%" stop-color="#b08a5a"/>
      <stop offset="100%" stop-color="#c9a373"/>
    </linearGradient>
  </defs>
  <!-- Outer badge: gold gradient -->
  <rect x="6" y="6" width="116" height="116" rx="26" fill="url(#g)"/>
  <!-- Clipboard body: obsidian -->
  <path d="M40 38h48a6 6 0 016 6v52a6 6 0 01-6 6H40a6 6 0 01-6-6V44a6 6 0 016-6z" fill="#141414" opacity="0.96"/>
  <!-- Clip top: leather -->
  <rect x="44" y="32" width="40" height="14" rx="4" fill="#1c1a18"/>
  <!-- Inner clip label: gold-leaf -->
  <rect x="48" y="36" width="32" height="6" rx="2" fill="#b08a5a"/>
  <!-- Document lines: bone-body -->
  <path d="M46 60h36M46 72h36M46 84h22" stroke="#d9d2c6" stroke-width="4" stroke-linecap="round"/>
  <!-- Check badge: cream circle with obsidian rim -->
  <circle cx="92" cy="92" r="14" fill="#f4efe6" stroke="#0a0a0a" stroke-width="3"/>
  <!-- Checkmark: gold-deep -->
  <path d="M86 92l4 4 8-8" stroke="#8a6a40" stroke-width="3" stroke-linecap="round" stroke-linejoin="round" fill="none"/>
</svg>
